<?xml version="1.0" standalone="no"?>
<!DOCTYPE svg PUBLIC "-//W3C//DTD SVG 20010904//EN"
 "http://www.w3.org/TR/2001/REC-SVG-20010904/DTD/svg10.dtd">
<svg version="1.0" xmlns="http://www.w3.org/2000/svg"
 width="469.000000pt" height="500.000000pt" viewBox="0 0 469.000000 500.000000"
 preserveAspectRatio="xMidYMid meet">

<g transform="translate(0.000000,500.000000) scale(0.100000,-0.100000)"
fill="#000000" stroke="none">
<path d="M4415 4876 c-82 -29 -179 -65 -215 -79 -36 -14 -99 -38 -140 -53
-166 -61 -271 -119 -355 -196 -44 -41 -136 -121 -205 -179 l-125 -106 -103 -7
c-91 -5 -109 -4 -149 14 -25 11 -52 20 -59 20 -8 0 -65 -26 -126 -57 -97 -50
-122 -59 -185 -64 -62 -5 -79 -10 -112 -37 -62 -50 -90 -45 -186 36 -61 52
-84 78 -96 112 -16 43 -19 45 -60 48 -23 2 -55 12 -70 23 l-27 19 -11 -33 c-7
-19 -22 -39 -35 -46 -31 -17 -85 6 -127 54 -18 20 -66 54 -108 75 -42 21 -103
54 -136 74 -52 32 -65 36 -101 30 -52 -7 -82 8 -96 48 l-11 30 -81 -6 c-44 -3
-306 -11 -581 -17 -275 -6 -547 -14 -605 -17 l-105 -7 -7 -200 c-3 -110 -9
-251 -11 -312 l-5 -113 31 0 c67 0 125 -64 154 -168 13 -50 18 -102 18 -207 0
-130 -2 -143 -23 -178 -31 -48 -73 -70 -126 -65 -22 3 -49 8 -58 12 -16 7 -18
0 -18 -83 0 -50 3 -91 6 -91 3 0 18 9 34 20 63 45 174 67 255 50 l53 -11 6
-60 c3 -32 9 -87 12 -121 6 -57 5 -61 -12 -54 -11 4 -40 12 -65 18 -41 10 -52
8 -92 -11 -35 -17 -51 -33 -69 -69 -46 -95 -32 -478 24 -649 15 -47 35 -80 63
-110 38 -39 46 -43 89 -43 31 0 65 9 96 24 l48 24 6 -41 c16 -122 18 -178 6
-192 -39 -47 -221 -62 -309 -25 -48 21 -124 91 -163 150 l-16 25 -5 -35 c-3
-19 -8 -113 -11 -208 -5 -157 -4 -172 12 -172 9 0 958 94 2109 210 1570 157
2100 213 2123 225 39 20 45 37 71 198 l21 132 -52 123 c-58 138 -84 176 -99
152 -6 -8 -8 -31 -6 -50 10 -77 37 -401 33 -405 -5 -5 -222 -24 -227 -19 -5 4
-120 1234 -121 1286 0 44 -1 43 176 56 231 17 353 -23 434 -146 l30 -45 0 169
c0 93 -4 175 -9 183 -10 16 152 30 -2185 -185 -566 -52 -1031 -92 -1033 -90
-8 7 30 237 41 250 9 10 369 32 1591 96 869 45 1581 84 1583 85 5 4 -19 1009
-24 1028 -3 9 -8 17 -12 16 -4 0 -74 -24 -157 -53z m-3244 -869 c76 -50 126
-223 116 -398 -7 -132 -54 -199 -142 -199 -76 0 -125 52 -161 175 -14 45 -19
95 -19 195 0 118 3 139 21 170 44 76 122 100 185 57z m-291 -25 c0 -4 13 -129
30 -277 16 -149 30 -280 30 -291 0 -18 -8 -22 -47 -28 -25 -3 -48 -4 -51 -1
-7 6 -70 588 -65 598 6 10 103 9 103 -1z m-170 -11 c0 -5 13 -132 30 -283 16
-150 30 -283 30 -294 0 -18 -7 -22 -47 -27 -27 -3 -49 -4 -51 -2 -2 1 -8 47
-13 101 -15 147 -14 144 -52 144 -55 0 -56 -3 -42 -135 7 -66 13 -121 12 -121
-1 -1 -26 -4 -54 -8 -41 -5 -53 -4 -53 7 0 7 -13 134 -30 282 -16 149 -30 280
-30 292 0 18 7 22 50 25 57 3 52 11 65 -117 12 -124 13 -125 56 -125 21 0 40
4 43 9 3 4 1 46 -4 92 -18 170 -21 153 30 160 25 3 48 7 53 7 4 1 7 -2 7 -7z
m3154 -473 c3 -24 8 -73 11 -109 l6 -67 -33 -5 c-18 -4 -76 -9 -128 -13 -52
-4 -100 -9 -105 -13 -8 -4 -6 -55 5 -161 l15 -155 60 0 c33 1 87 3 120 5 l59
4 7 -34 c4 -18 9 -67 11 -109 l3 -76 -113 -11 c-62 -6 -115 -14 -119 -18 -7
-6 15 -290 25 -314 4 -11 18 -13 61 -8 31 3 93 8 138 12 l81 6 6 -78 c4 -44 9
-93 12 -110 4 -31 4 -31 -48 -37 -133 -15 -458 -41 -462 -36 -7 6 -126 1312
-121 1318 5 4 414 48 472 50 30 1 32 -1 37 -41z m-604 -45 c0 -16 3 -65 6
-109 l7 -81 -77 -8 -76 -7 0 -46 c0 -26 7 -117 15 -202 36 -380 75 -807 75
-832 0 -29 -7 -31 -151 -43 l-77 -7 -6 69 c-4 37 -24 264 -46 503 -22 239 -43
457 -46 484 l-6 49 -79 -6 -78 -5 -5 26 c-11 58 -18 192 -10 193 338 35 459
46 502 48 50 1 52 0 52 -26z m-616 -65 c3 -18 7 -67 8 -108 l3 -75 -73 -7
c-40 -3 -76 -8 -78 -11 -3 -3 18 -250 46 -551 27 -300 50 -547 50 -550 0 -2
-39 -7 -87 -11 -49 -3 -100 -8 -115 -11 -33 -6 -25 -60 -84 581 -25 275 -47
505 -49 511 -2 7 -30 9 -83 6 l-80 -4 -7 88 c-4 49 -8 98 -8 109 -2 19 11 21
213 41 118 12 243 22 277 23 l62 1 5 -32z m-784 -34 c0 -3 83 -296 185 -651
102 -355 184 -648 181 -650 -11 -11 -219 -24 -225 -14 -4 5 -20 63 -36 127
l-30 117 -98 -6 c-54 -4 -102 -9 -106 -12 -5 -3 -12 -63 -16 -134 l-7 -129
-47 -6 c-25 -3 -76 -8 -113 -11 l-68 -7 5 44 c5 40 38 382 100 1042 14 148 26
270 28 272 1 1 54 6 117 11 63 6 118 11 123 11 4 1 7 -1 7 -4z m-567 -106 c15
-129 118 -1270 115 -1273 -3 -3 -222 -24 -225 -21 -1 1 -14 123 -28 271 -14
148 -29 272 -33 276 -7 6 -180 -5 -187 -13 -4 -3 28 -398 40 -504 l6 -52 -78
-6 c-43 -4 -95 -9 -115 -12 -35 -5 -37 -4 -42 28 -3 18 -23 231 -45 473 -22
242 -48 524 -58 627 -9 103 -14 190 -12 193 7 6 219 28 224 23 2 -2 14 -124
28 -271 13 -147 26 -269 28 -271 4 -4 190 12 194 16 1 2 -9 124 -22 271 -14
148 -23 270 -21 273 4 4 145 20 199 23 24 1 27 -3 32 -51z"/>
<path d="M1079 3914 c-24 -30 -10 -259 22 -362 14 -41 42 -58 63 -36 12 12 16
38 16 112 0 209 -49 348 -101 286z"/>
<path d="M1767 2860 c-10 -74 -30 -370 -25 -375 3 -3 33 -2 67 2 l63 6 -6 41
c-4 23 -26 115 -50 206 -41 157 -43 163 -49 120z"/>
<path d="M186 3815 c-3 -9 -6 -71 -5 -138 1 -191 39 -302 86 -254 15 15 18 33
15 109 -3 116 -18 213 -40 258 -19 38 -46 50 -56 25z"/>
<path d="M4237 3347 c-2 -7 4 -102 14 -212 10 -110 18 -203 19 -207 0 -14 33
-8 76 13 59 28 84 81 84 177 0 127 -46 216 -119 228 -20 3 -43 8 -52 10 -9 3
-19 -1 -22 -9z"/>
<path d="M4090 1944 c-213 -30 -1243 -171 -2764 -378 -665 -91 -1211 -167
-1213 -170 -7 -7 -24 -328 -18 -334 2 -3 32 1 65 8 l60 13 53 -42 54 -41 58
20 c32 11 64 20 71 20 6 0 22 -17 34 -37 12 -21 53 -67 92 -102 61 -56 77 -79
132 -190 l64 -126 163 -34 c90 -19 173 -37 184 -42 11 -4 57 -39 103 -78 l83
-70 65 39 c35 22 69 40 75 40 6 0 69 -30 139 -67 l128 -68 63 14 c84 17 107
30 187 106 64 60 71 64 130 71 l62 7 0 -86 0 -85 39 -35 c48 -43 65 -52 114
-61 35 -7 43 -15 103 -107 35 -55 71 -102 80 -106 16 -6 259 62 280 78 6 5 14
26 18 47 3 20 12 60 21 88 14 49 17 52 60 63 42 11 45 14 44 44 0 17 -8 75
-18 127 l-19 95 60 120 c56 112 78 141 136 182 23 16 25 15 80 -38 112 -107
104 -103 161 -89 28 7 51 17 51 23 0 6 -12 48 -27 93 l-26 82 39 58 c21 33 50
94 63 136 l24 77 66 3 66 3 10 60 c12 72 12 72 68 112 l45 33 45 -41 c38 -33
50 -39 74 -33 58 14 103 44 121 81 13 28 25 39 50 44 17 4 51 24 75 46 23 21
85 71 138 111 88 66 96 75 112 125 21 67 21 90 1 129 -12 24 -14 36 -5 55 6
13 11 26 11 28 0 9 -64 3 -230 -21z"/>
</g>
</svg>
